<mxfile host="app.diagrams.net" modified="2024-02-19T16:16:29.860Z" agent="Mozilla/5.0 (Windows NT 10.0; Win64; x64) AppleWebKit/537.36 (KHTML, like Gecko) Chrome/121.0.0.0 Safari/537.36" etag="OcMgx2nEupsST8Et86Zm" version="23.0.1" type="device">
  <diagram name="Page-1" id="-d8JDkyyJbdP6G4lQLtd">
    <mxGraphModel dx="5244" dy="1610" grid="1" gridSize="10" guides="1" tooltips="1" connect="1" arrows="1" fold="1" page="1" pageScale="1" pageWidth="827" pageHeight="1169" math="0" shadow="0">
      <root>
        <mxCell id="0" />
        <mxCell id="1" parent="0" />
        <mxCell id="pqKyCdqcijLwKparUM79-2" value="Instruction&lt;br style=&quot;border-color: var(--border-color);&quot;&gt;Memory" style="rounded=0;whiteSpace=wrap;html=1;movable=1;resizable=1;rotatable=1;deletable=1;editable=1;locked=0;connectable=1;" parent="1" vertex="1">
          <mxGeometry x="-600.06" y="270" width="100" height="160" as="geometry" />
        </mxCell>
        <mxCell id="pqKyCdqcijLwKparUM79-14" value="&lt;font style=&quot;font-size: 17px;&quot;&gt;&amp;nbsp; &amp;nbsp; &amp;nbsp; +&lt;/font&gt;" style="shape=stencil(tZXRjoIwEEW/pq+bQsPq6wb1PyqOS2NtSdvV3b93oGCs0I0IJISkc7mHIb1DCcttySsgKS0J25A0TSjFO66vT2tuKyicL164EXwvwSvWGX2Cqzi4liFUCUa4WmVbQr/wmfpieaGVQojQygbKg44wLhR66a+Hta//C1YV8s/gwLRNNtXd68yPbAFqskSnIbPre95OZ6KGvSaL7NQ81ORNJsuxEgsxy/e8OH0b/aMOfVdUO2oDA8JdFlL6AYt9YMXruesJnXzWF/h/moawnVsK9eC+/wxaP5sKWI0FPGWMTvOvx9qz0P+ZTfOzsf7Q/sL+FVLbaHKwHgkPHguDmWs8vcQ2VX+ONIUb);whiteSpace=wrap;html=1;" parent="1" vertex="1">
          <mxGeometry x="-570.06" y="588" width="60" height="130" as="geometry" />
        </mxCell>
        <mxCell id="pqKyCdqcijLwKparUM79-19" value="" style="group" parent="1" vertex="1" connectable="0">
          <mxGeometry x="-770.06" y="280" width="70" height="120" as="geometry" />
        </mxCell>
        <mxCell id="pqKyCdqcijLwKparUM79-4" value="PC&lt;br&gt;Register" style="rounded=0;whiteSpace=wrap;html=1;movable=1;resizable=1;rotatable=1;deletable=1;editable=1;locked=0;connectable=1;" parent="pqKyCdqcijLwKparUM79-19" vertex="1">
          <mxGeometry width="70" height="110" as="geometry" />
        </mxCell>
        <mxCell id="6ZzgKOErrP5oYCzK0KQO-4" value="" style="triangle;whiteSpace=wrap;html=1;rotation=-90;" parent="pqKyCdqcijLwKparUM79-19" vertex="1">
          <mxGeometry x="44" y="85" width="20" height="30" as="geometry" />
        </mxCell>
        <mxCell id="pqKyCdqcijLwKparUM79-21" value="" style="edgeStyle=segmentEdgeStyle;endArrow=none;html=1;curved=0;rounded=0;endSize=8;startSize=8;endFill=0;strokeWidth=3;entryX=0;entryY=0.1;entryDx=0;entryDy=0;entryPerimeter=0;" parent="1" target="pqKyCdqcijLwKparUM79-14" edge="1">
          <mxGeometry width="50" height="50" relative="1" as="geometry">
            <mxPoint x="-700.06" y="300" as="sourcePoint" />
            <mxPoint x="-580.06" y="480" as="targetPoint" />
            <Array as="points">
              <mxPoint x="-700.06" y="300" />
              <mxPoint x="-650.06" y="300" />
              <mxPoint x="-650.06" y="600" />
              <mxPoint x="-570.06" y="600" />
            </Array>
          </mxGeometry>
        </mxCell>
        <mxCell id="pqKyCdqcijLwKparUM79-23" value="&lt;font style=&quot;font-size: 17px;&quot;&gt;4&lt;/font&gt;" style="text;html=1;strokeColor=none;fillColor=none;align=center;verticalAlign=middle;whiteSpace=wrap;rounded=0;" parent="1" vertex="1">
          <mxGeometry x="-640.06" y="688" width="60" height="30" as="geometry" />
        </mxCell>
        <mxCell id="pqKyCdqcijLwKparUM79-25" value="" style="edgeStyle=segmentEdgeStyle;endArrow=none;html=1;curved=0;rounded=0;endSize=8;startSize=8;endFill=0;strokeWidth=3;" parent="1" edge="1">
          <mxGeometry width="50" height="50" relative="1" as="geometry">
            <mxPoint x="-600.06" y="702.86" as="sourcePoint" />
            <mxPoint x="-570.06" y="702.86" as="targetPoint" />
            <Array as="points">
              <mxPoint x="-570.06" y="702.86" />
            </Array>
          </mxGeometry>
        </mxCell>
        <mxCell id="pqKyCdqcijLwKparUM79-33" value="" style="edgeStyle=segmentEdgeStyle;endArrow=none;html=1;curved=0;rounded=0;endSize=8;startSize=8;strokeWidth=3;endFill=0;entryX=0.067;entryY=0.177;entryDx=0;entryDy=0;entryPerimeter=0;" parent="1" source="pqKyCdqcijLwKparUM79-14" target="kmD2kSmIw5DQ0OwgYXNQ-9" edge="1">
          <mxGeometry width="50" height="50" relative="1" as="geometry">
            <mxPoint x="-510.05999999999995" y="588" as="sourcePoint" />
            <mxPoint x="-1090" y="240" as="targetPoint" />
            <Array as="points">
              <mxPoint x="-460" y="650" />
              <mxPoint x="-460" y="750" />
              <mxPoint x="-1090" y="750" />
              <mxPoint x="-1090" y="240" />
            </Array>
          </mxGeometry>
        </mxCell>
        <mxCell id="pqKyCdqcijLwKparUM79-35" value="PCPlus4" style="text;html=1;align=center;verticalAlign=middle;resizable=0;points=[];autosize=1;strokeColor=none;fillColor=none;" parent="1" vertex="1">
          <mxGeometry x="-510.05999999999995" y="620" width="70" height="30" as="geometry" />
        </mxCell>
        <mxCell id="pqKyCdqcijLwKparUM79-66" value="" style="endArrow=none;html=1;rounded=0;edgeStyle=orthogonalEdgeStyle;entryX=0;entryY=0.188;entryDx=0;entryDy=0;entryPerimeter=0;strokeWidth=3;endFill=0;" parent="1" target="pqKyCdqcijLwKparUM79-2" edge="1">
          <mxGeometry width="50" height="50" relative="1" as="geometry">
            <mxPoint x="-650.06" y="300" as="sourcePoint" />
            <mxPoint x="-600.06" y="250" as="targetPoint" />
            <Array as="points">
              <mxPoint x="-600.06" y="300" />
            </Array>
          </mxGeometry>
        </mxCell>
        <mxCell id="pqKyCdqcijLwKparUM79-67" value="A" style="text;html=1;strokeColor=none;fillColor=none;align=center;verticalAlign=middle;whiteSpace=wrap;rounded=0;" parent="1" vertex="1">
          <mxGeometry x="-600.06" y="283.75" width="20" height="30" as="geometry" />
        </mxCell>
        <mxCell id="pqKyCdqcijLwKparUM79-70" value="RD1" style="text;html=1;strokeColor=none;fillColor=none;align=center;verticalAlign=middle;whiteSpace=wrap;rounded=0;" parent="1" vertex="1">
          <mxGeometry x="-540.06" y="283.75" width="40" height="30" as="geometry" />
        </mxCell>
        <mxCell id="pqKyCdqcijLwKparUM79-72" value="Instr1" style="text;html=1;align=center;verticalAlign=middle;resizable=0;points=[];autosize=1;strokeColor=none;fillColor=none;" parent="1" vertex="1">
          <mxGeometry x="-490.05999999999995" y="270" width="50" height="30" as="geometry" />
        </mxCell>
        <mxCell id="pqKyCdqcijLwKparUM79-15" value="PC" style="text;html=1;strokeColor=none;fillColor=none;align=center;verticalAlign=middle;whiteSpace=wrap;rounded=0;movable=1;resizable=1;rotatable=1;deletable=1;editable=1;locked=0;connectable=1;" parent="1" vertex="1">
          <mxGeometry x="-690.06" y="276.25" width="30" height="30" as="geometry" />
        </mxCell>
        <mxCell id="mD6Y1HiL43RDxldO9E73-1" value="&lt;font style=&quot;font-size: 17px;&quot;&gt;&amp;nbsp; &amp;nbsp; &amp;nbsp; +&lt;/font&gt;" style="shape=stencil(tZXRjoIwEEW/pq+bQsPq6wb1PyqOS2NtSdvV3b93oGCs0I0IJISkc7mHIb1DCcttySsgKS0J25A0TSjFO66vT2tuKyicL164EXwvwSvWGX2Cqzi4liFUCUa4WmVbQr/wmfpieaGVQojQygbKg44wLhR66a+Hta//C1YV8s/gwLRNNtXd68yPbAFqskSnIbPre95OZ6KGvSaL7NQ81ORNJsuxEgsxy/e8OH0b/aMOfVdUO2oDA8JdFlL6AYt9YMXruesJnXzWF/h/moawnVsK9eC+/wxaP5sKWI0FPGWMTvOvx9qz0P+ZTfOzsf7Q/sL+FVLbaHKwHgkPHguDmWs8vcQ2VX+ONIUb);whiteSpace=wrap;html=1;" parent="1" vertex="1">
          <mxGeometry x="-570.06" y="782" width="60" height="130" as="geometry" />
        </mxCell>
        <mxCell id="mD6Y1HiL43RDxldO9E73-2" value="" style="edgeStyle=segmentEdgeStyle;endArrow=none;html=1;curved=0;rounded=0;endSize=8;startSize=8;endFill=0;strokeWidth=3;" parent="1" edge="1">
          <mxGeometry width="50" height="50" relative="1" as="geometry">
            <mxPoint x="-600.06" y="896.86" as="sourcePoint" />
            <mxPoint x="-570.06" y="896.86" as="targetPoint" />
            <Array as="points">
              <mxPoint x="-570.06" y="896.86" />
            </Array>
          </mxGeometry>
        </mxCell>
        <mxCell id="mD6Y1HiL43RDxldO9E73-3" value="PCPlus8" style="text;html=1;align=center;verticalAlign=middle;resizable=0;points=[];autosize=1;strokeColor=none;fillColor=none;" parent="1" vertex="1">
          <mxGeometry x="-510.05999999999995" y="814" width="70" height="30" as="geometry" />
        </mxCell>
        <mxCell id="mD6Y1HiL43RDxldO9E73-4" value="&lt;font style=&quot;font-size: 17px;&quot;&gt;8&lt;br&gt;&lt;/font&gt;" style="text;html=1;strokeColor=none;fillColor=none;align=center;verticalAlign=middle;whiteSpace=wrap;rounded=0;" parent="1" vertex="1">
          <mxGeometry x="-638.06" y="882" width="60" height="30" as="geometry" />
        </mxCell>
        <mxCell id="mD6Y1HiL43RDxldO9E73-5" value="" style="endArrow=none;html=1;rounded=0;edgeStyle=orthogonalEdgeStyle;exitX=1;exitY=0.5;exitDx=0;exitDy=0;strokeWidth=3;endFill=0;entryX=-0.083;entryY=0.482;entryDx=0;entryDy=0;entryPerimeter=0;" parent="1" source="mD6Y1HiL43RDxldO9E73-1" target="kmD2kSmIw5DQ0OwgYXNQ-11" edge="1">
          <mxGeometry width="50" height="50" relative="1" as="geometry">
            <mxPoint x="-460.05999999999995" y="940" as="sourcePoint" />
            <mxPoint x="-960" y="560" as="targetPoint" />
            <Array as="points">
              <mxPoint x="-470" y="847" />
              <mxPoint x="-470" y="950" />
              <mxPoint x="-1310" y="950" />
              <mxPoint x="-1310" y="276" />
            </Array>
          </mxGeometry>
        </mxCell>
        <mxCell id="mD6Y1HiL43RDxldO9E73-6" value="" style="endArrow=none;html=1;rounded=0;edgeStyle=orthogonalEdgeStyle;entryX=-0.028;entryY=0.082;entryDx=0;entryDy=0;entryPerimeter=0;endFill=0;strokeWidth=3;" parent="1" target="mD6Y1HiL43RDxldO9E73-1" edge="1">
          <mxGeometry width="50" height="50" relative="1" as="geometry">
            <mxPoint x="-650.06" y="600" as="sourcePoint" />
            <mxPoint x="-660.56" y="650" as="targetPoint" />
            <Array as="points">
              <mxPoint x="-650.06" y="701" />
              <mxPoint x="-650.06" y="793" />
            </Array>
          </mxGeometry>
        </mxCell>
        <mxCell id="mD6Y1HiL43RDxldO9E73-10" value="RD1" style="text;html=1;strokeColor=none;fillColor=none;align=center;verticalAlign=middle;whiteSpace=wrap;rounded=0;" parent="1" vertex="1">
          <mxGeometry x="-540.06" y="390" width="40" height="30" as="geometry" />
        </mxCell>
        <mxCell id="mD6Y1HiL43RDxldO9E73-11" value="Issue&lt;br&gt;Control&lt;br&gt;Unit" style="rounded=1;whiteSpace=wrap;html=1;" parent="1" vertex="1">
          <mxGeometry x="-413" y="241.88" width="120" height="226.25" as="geometry" />
        </mxCell>
        <mxCell id="mD6Y1HiL43RDxldO9E73-12" value="" style="endArrow=none;html=1;rounded=0;edgeStyle=orthogonalEdgeStyle;endFill=0;strokeWidth=3;exitX=1;exitY=0.5;exitDx=0;exitDy=0;entryX=-0.091;entryY=0.476;entryDx=0;entryDy=0;entryPerimeter=0;" parent="1" source="McoKHCdC2h_daNFeaJf2-11" target="kmD2kSmIw5DQ0OwgYXNQ-8" edge="1">
          <mxGeometry width="50" height="50" relative="1" as="geometry">
            <mxPoint x="-80" y="120" as="sourcePoint" />
            <mxPoint x="-960" y="120" as="targetPoint" />
            <Array as="points">
              <mxPoint x="610" y="155" />
              <mxPoint x="610" y="60" />
              <mxPoint x="310" y="60" />
              <mxPoint x="310" y="120" />
              <mxPoint x="-960" y="120" />
              <mxPoint x="-960" y="320" />
            </Array>
          </mxGeometry>
        </mxCell>
        <mxCell id="mD6Y1HiL43RDxldO9E73-14" value="Instr2" style="text;html=1;align=center;verticalAlign=middle;resizable=0;points=[];autosize=1;strokeColor=none;fillColor=none;" parent="1" vertex="1">
          <mxGeometry x="-500.05999999999995" y="370" width="50" height="30" as="geometry" />
        </mxCell>
        <mxCell id="mD6Y1HiL43RDxldO9E73-15" value="" style="endArrow=none;html=1;rounded=0;edgeStyle=orthogonalEdgeStyle;entryX=-0.004;entryY=0.738;entryDx=0;entryDy=0;entryPerimeter=0;strokeWidth=3;endFill=0;" parent="1" target="mD6Y1HiL43RDxldO9E73-11" edge="1">
          <mxGeometry width="50" height="50" relative="1" as="geometry">
            <mxPoint x="-500.53999999999996" y="409.76" as="sourcePoint" />
            <mxPoint x="-450.53999999999996" y="359.76" as="targetPoint" />
            <Array as="points">
              <mxPoint x="-450" y="410" />
            </Array>
          </mxGeometry>
        </mxCell>
        <mxCell id="mD6Y1HiL43RDxldO9E73-16" value="" style="endArrow=none;html=1;rounded=0;edgeStyle=orthogonalEdgeStyle;entryX=-0.004;entryY=0.738;entryDx=0;entryDy=0;entryPerimeter=0;strokeWidth=3;endFill=0;" parent="1" edge="1">
          <mxGeometry width="50" height="50" relative="1" as="geometry">
            <mxPoint x="-500.05999999999995" y="305.76" as="sourcePoint" />
            <mxPoint x="-412.52" y="305" as="targetPoint" />
            <Array as="points">
              <mxPoint x="-449.52" y="306" />
            </Array>
          </mxGeometry>
        </mxCell>
        <mxCell id="mD6Y1HiL43RDxldO9E73-25" value="Register&lt;br&gt;File" style="rounded=0;whiteSpace=wrap;html=1;" parent="1" vertex="1">
          <mxGeometry x="130" y="390" width="120" height="440" as="geometry" />
        </mxCell>
        <mxCell id="mD6Y1HiL43RDxldO9E73-26" value="" style="triangle;whiteSpace=wrap;html=1;rotation=-90;" parent="1" vertex="1">
          <mxGeometry x="135" y="806.25" width="20" height="30" as="geometry" />
        </mxCell>
        <mxCell id="mD6Y1HiL43RDxldO9E73-27" value="RD1" style="text;html=1;strokeColor=none;fillColor=none;align=center;verticalAlign=middle;whiteSpace=wrap;rounded=0;" parent="1" vertex="1">
          <mxGeometry x="205" y="410" width="50" height="30" as="geometry" />
        </mxCell>
        <mxCell id="mD6Y1HiL43RDxldO9E73-28" value="RD2" style="text;html=1;strokeColor=none;fillColor=none;align=center;verticalAlign=middle;whiteSpace=wrap;rounded=0;" parent="1" vertex="1">
          <mxGeometry x="205" y="490" width="50" height="30" as="geometry" />
        </mxCell>
        <mxCell id="mD6Y1HiL43RDxldO9E73-29" value="WE3" style="text;html=1;strokeColor=none;fillColor=none;align=center;verticalAlign=middle;whiteSpace=wrap;rounded=0;" parent="1" vertex="1">
          <mxGeometry x="160" y="390" width="60" height="30" as="geometry" />
        </mxCell>
        <mxCell id="mD6Y1HiL43RDxldO9E73-30" value="A1" style="text;html=1;strokeColor=none;fillColor=none;align=center;verticalAlign=middle;whiteSpace=wrap;rounded=0;" parent="1" vertex="1">
          <mxGeometry x="130" y="406" width="30" height="30" as="geometry" />
        </mxCell>
        <mxCell id="mD6Y1HiL43RDxldO9E73-31" value="A2" style="text;html=1;strokeColor=none;fillColor=none;align=center;verticalAlign=middle;whiteSpace=wrap;rounded=0;" parent="1" vertex="1">
          <mxGeometry x="130" y="436" width="30" height="30" as="geometry" />
        </mxCell>
        <mxCell id="mD6Y1HiL43RDxldO9E73-32" value="A3" style="text;html=1;strokeColor=none;fillColor=none;align=center;verticalAlign=middle;whiteSpace=wrap;rounded=0;" parent="1" vertex="1">
          <mxGeometry x="130" y="466" width="30" height="30" as="geometry" />
        </mxCell>
        <mxCell id="mD6Y1HiL43RDxldO9E73-33" value="A4" style="text;html=1;strokeColor=none;fillColor=none;align=center;verticalAlign=middle;whiteSpace=wrap;rounded=0;" parent="1" vertex="1">
          <mxGeometry x="130" y="682.88" width="30" height="30" as="geometry" />
        </mxCell>
        <mxCell id="mD6Y1HiL43RDxldO9E73-34" value="A5" style="text;html=1;strokeColor=none;fillColor=none;align=center;verticalAlign=middle;whiteSpace=wrap;rounded=0;" parent="1" vertex="1">
          <mxGeometry x="130" y="708.88" width="30" height="30" as="geometry" />
        </mxCell>
        <mxCell id="mD6Y1HiL43RDxldO9E73-35" value="A6" style="text;html=1;strokeColor=none;fillColor=none;align=center;verticalAlign=middle;whiteSpace=wrap;rounded=0;" parent="1" vertex="1">
          <mxGeometry x="130" y="738.88" width="30" height="30" as="geometry" />
        </mxCell>
        <mxCell id="mD6Y1HiL43RDxldO9E73-37" value="RD4" style="text;html=1;strokeColor=none;fillColor=none;align=center;verticalAlign=middle;whiteSpace=wrap;rounded=0;" parent="1" vertex="1">
          <mxGeometry x="205" y="676.25" width="50" height="30" as="geometry" />
        </mxCell>
        <mxCell id="mD6Y1HiL43RDxldO9E73-38" value="RD5" style="text;html=1;strokeColor=none;fillColor=none;align=center;verticalAlign=middle;whiteSpace=wrap;rounded=0;" parent="1" vertex="1">
          <mxGeometry x="205" y="750" width="50" height="30" as="geometry" />
        </mxCell>
        <mxCell id="mD6Y1HiL43RDxldO9E73-41" value="Instr1" style="text;html=1;align=center;verticalAlign=middle;resizable=0;points=[];autosize=1;strokeColor=none;fillColor=none;" parent="1" vertex="1">
          <mxGeometry x="-279.99999999999994" y="270" width="50" height="30" as="geometry" />
        </mxCell>
        <mxCell id="mD6Y1HiL43RDxldO9E73-42" value="Instr2" style="text;html=1;align=center;verticalAlign=middle;resizable=0;points=[];autosize=1;strokeColor=none;fillColor=none;" parent="1" vertex="1">
          <mxGeometry x="-279.99999999999994" y="380" width="50" height="30" as="geometry" />
        </mxCell>
        <mxCell id="BCcBlVLc_U1ke10MkRPn-1" value="" style="endArrow=none;html=1;rounded=0;exitX=0;exitY=0.5;exitDx=0;exitDy=0;endFill=0;" parent="1" edge="1">
          <mxGeometry width="50" height="50" relative="1" as="geometry">
            <mxPoint x="130" y="480.88" as="sourcePoint" />
            <mxPoint x="50" y="480.88" as="targetPoint" />
          </mxGeometry>
        </mxCell>
        <mxCell id="BCcBlVLc_U1ke10MkRPn-2" value="" style="endArrow=none;html=1;rounded=0;exitX=0;exitY=0.5;exitDx=0;exitDy=0;endFill=0;" parent="1" edge="1">
          <mxGeometry width="50" height="50" relative="1" as="geometry">
            <mxPoint x="130" y="451.46" as="sourcePoint" />
            <mxPoint x="50" y="451.46" as="targetPoint" />
          </mxGeometry>
        </mxCell>
        <mxCell id="BCcBlVLc_U1ke10MkRPn-3" value="" style="endArrow=none;html=1;rounded=0;exitX=0;exitY=0.5;exitDx=0;exitDy=0;endFill=0;" parent="1" edge="1">
          <mxGeometry width="50" height="50" relative="1" as="geometry">
            <mxPoint x="130" y="420" as="sourcePoint" />
            <mxPoint x="50" y="420" as="targetPoint" />
          </mxGeometry>
        </mxCell>
        <mxCell id="BCcBlVLc_U1ke10MkRPn-4" value="" style="endArrow=none;html=1;rounded=0;exitX=0;exitY=0.5;exitDx=0;exitDy=0;endFill=0;" parent="1" edge="1">
          <mxGeometry width="50" height="50" relative="1" as="geometry">
            <mxPoint x="130" y="754.75" as="sourcePoint" />
            <mxPoint x="50" y="754.75" as="targetPoint" />
          </mxGeometry>
        </mxCell>
        <mxCell id="BCcBlVLc_U1ke10MkRPn-5" value="" style="endArrow=none;html=1;rounded=0;exitX=0;exitY=0.5;exitDx=0;exitDy=0;endFill=0;" parent="1" edge="1">
          <mxGeometry width="50" height="50" relative="1" as="geometry">
            <mxPoint x="130" y="724.75" as="sourcePoint" />
            <mxPoint x="50" y="724.75" as="targetPoint" />
          </mxGeometry>
        </mxCell>
        <mxCell id="BCcBlVLc_U1ke10MkRPn-6" value="" style="endArrow=none;html=1;rounded=0;exitX=0;exitY=0.5;exitDx=0;exitDy=0;endFill=0;" parent="1" edge="1">
          <mxGeometry width="50" height="50" relative="1" as="geometry">
            <mxPoint x="130" y="697.59" as="sourcePoint" />
            <mxPoint x="50" y="697.59" as="targetPoint" />
          </mxGeometry>
        </mxCell>
        <mxCell id="BCcBlVLc_U1ke10MkRPn-7" value="11:7" style="text;html=1;align=center;verticalAlign=middle;resizable=0;points=[];autosize=1;strokeColor=none;fillColor=none;" parent="1" vertex="1">
          <mxGeometry x="60" y="458" width="50" height="30" as="geometry" />
        </mxCell>
        <mxCell id="BCcBlVLc_U1ke10MkRPn-8" value="11:7" style="text;html=1;align=center;verticalAlign=middle;resizable=0;points=[];autosize=1;strokeColor=none;fillColor=none;" parent="1" vertex="1">
          <mxGeometry x="60" y="724.75" width="50" height="30" as="geometry" />
        </mxCell>
        <mxCell id="BCcBlVLc_U1ke10MkRPn-9" value="19:15" style="text;html=1;align=center;verticalAlign=middle;resizable=0;points=[];autosize=1;strokeColor=none;fillColor=none;" parent="1" vertex="1">
          <mxGeometry x="60" y="390" width="50" height="30" as="geometry" />
        </mxCell>
        <mxCell id="BCcBlVLc_U1ke10MkRPn-10" value="19:15" style="text;html=1;align=center;verticalAlign=middle;resizable=0;points=[];autosize=1;strokeColor=none;fillColor=none;" parent="1" vertex="1">
          <mxGeometry x="60" y="670.25" width="50" height="30" as="geometry" />
        </mxCell>
        <mxCell id="BCcBlVLc_U1ke10MkRPn-11" value="24:20" style="text;html=1;align=center;verticalAlign=middle;resizable=0;points=[];autosize=1;strokeColor=none;fillColor=none;" parent="1" vertex="1">
          <mxGeometry x="60" y="420" width="50" height="30" as="geometry" />
        </mxCell>
        <mxCell id="BCcBlVLc_U1ke10MkRPn-12" value="24:20" style="text;html=1;align=center;verticalAlign=middle;resizable=0;points=[];autosize=1;strokeColor=none;fillColor=none;" parent="1" vertex="1">
          <mxGeometry x="60" y="694.75" width="50" height="30" as="geometry" />
        </mxCell>
        <mxCell id="BCcBlVLc_U1ke10MkRPn-46" value="" style="edgeStyle=orthogonalEdgeStyle;rounded=0;orthogonalLoop=1;jettySize=auto;html=1;entryX=0.338;entryY=0.972;entryDx=0;entryDy=0;entryPerimeter=0;strokeWidth=3;endArrow=none;endFill=0;" parent="1" target="BCcBlVLc_U1ke10MkRPn-40" edge="1">
          <mxGeometry relative="1" as="geometry">
            <mxPoint x="400" y="316.25" as="sourcePoint" />
            <mxPoint x="490" y="320" as="targetPoint" />
            <Array as="points">
              <mxPoint x="447" y="316" />
            </Array>
          </mxGeometry>
        </mxCell>
        <mxCell id="BCcBlVLc_U1ke10MkRPn-13" value="Extender" style="shape=manualInput;whiteSpace=wrap;html=1;" parent="1" vertex="1">
          <mxGeometry x="280" y="300" width="120" height="60" as="geometry" />
        </mxCell>
        <mxCell id="BCcBlVLc_U1ke10MkRPn-14" value="Extender" style="shape=manualInput;whiteSpace=wrap;html=1;" parent="1" vertex="1">
          <mxGeometry x="280" y="844.75" width="120" height="60" as="geometry" />
        </mxCell>
        <mxCell id="BCcBlVLc_U1ke10MkRPn-15" value="" style="endArrow=none;html=1;rounded=0;exitX=1;exitY=0.25;exitDx=0;exitDy=0;endFill=0;strokeWidth=3;" parent="1" source="mD6Y1HiL43RDxldO9E73-11" edge="1">
          <mxGeometry width="50" height="50" relative="1" as="geometry">
            <mxPoint x="-70" y="440" as="sourcePoint" />
            <mxPoint x="50" y="480" as="targetPoint" />
            <Array as="points">
              <mxPoint x="50" y="300" />
            </Array>
          </mxGeometry>
        </mxCell>
        <mxCell id="BCcBlVLc_U1ke10MkRPn-16" value="" style="endArrow=none;html=1;rounded=0;entryX=0;entryY=0.75;entryDx=0;entryDy=0;endFill=0;" parent="1" target="BCcBlVLc_U1ke10MkRPn-13" edge="1">
          <mxGeometry width="50" height="50" relative="1" as="geometry">
            <mxPoint x="50" y="345" as="sourcePoint" />
            <mxPoint x="100" y="300" as="targetPoint" />
          </mxGeometry>
        </mxCell>
        <mxCell id="BCcBlVLc_U1ke10MkRPn-17" value="31:7" style="text;html=1;align=center;verticalAlign=middle;resizable=0;points=[];autosize=1;strokeColor=none;fillColor=none;" parent="1" vertex="1">
          <mxGeometry x="140" y="313.75" width="50" height="30" as="geometry" />
        </mxCell>
        <mxCell id="BCcBlVLc_U1ke10MkRPn-18" value="" style="endArrow=none;html=1;rounded=0;entryX=0;entryY=0.75;entryDx=0;entryDy=0;endFill=0;" parent="1" edge="1">
          <mxGeometry width="50" height="50" relative="1" as="geometry">
            <mxPoint x="50" y="896" as="sourcePoint" />
            <mxPoint x="280" y="896" as="targetPoint" />
          </mxGeometry>
        </mxCell>
        <mxCell id="BCcBlVLc_U1ke10MkRPn-19" value="31:7" style="text;html=1;align=center;verticalAlign=middle;resizable=0;points=[];autosize=1;strokeColor=none;fillColor=none;" parent="1" vertex="1">
          <mxGeometry x="140" y="864.75" width="50" height="30" as="geometry" />
        </mxCell>
        <mxCell id="BCcBlVLc_U1ke10MkRPn-20" value="" style="endArrow=none;html=1;rounded=0;exitX=1;exitY=0.75;exitDx=0;exitDy=0;endFill=0;strokeWidth=3;" parent="1" source="mD6Y1HiL43RDxldO9E73-11" edge="1">
          <mxGeometry width="50" height="50" relative="1" as="geometry">
            <mxPoint x="-50" y="660" as="sourcePoint" />
            <mxPoint x="50" y="900" as="targetPoint" />
            <Array as="points">
              <mxPoint y="412" />
              <mxPoint y="700" />
              <mxPoint x="50" y="700" />
            </Array>
          </mxGeometry>
        </mxCell>
        <mxCell id="BCcBlVLc_U1ke10MkRPn-21" value="&lt;font style=&quot;font-size: 14px;&quot;&gt;&amp;nbsp; &amp;nbsp; &amp;nbsp; &amp;nbsp; ALU&lt;/font&gt;" style="shape=stencil(tZXRjoIwEEW/pq+bQsPq6wb1PyqOS2NtSdvV3b93oGCs0I0IJISkc7mHIb1DCcttySsgKS0J25A0TSjFO66vT2tuKyicL164EXwvwSvWGX2Cqzi4liFUCUa4WmVbQr/wmfpieaGVQojQygbKg44wLhR66a+Hta//C1YV8s/gwLRNNtXd68yPbAFqskSnIbPre95OZ6KGvSaL7NQ81ORNJsuxEgsxy/e8OH0b/aMOfVdUO2oDA8JdFlL6AYt9YMXruesJnXzWF/h/moawnVsK9eC+/wxaP5sKWI0FPGWMTvOvx9qz0P+ZTfOzsf7Q/sL+FVLbaHKwHgkPHguDmWs8vcQ2VX+ONIUb);whiteSpace=wrap;html=1;movable=1;resizable=1;rotatable=1;deletable=1;editable=1;locked=0;connectable=1;" parent="1" vertex="1">
          <mxGeometry x="590" y="316.25" width="60" height="130" as="geometry" />
        </mxCell>
        <mxCell id="BCcBlVLc_U1ke10MkRPn-25" value="SrcB1" style="text;html=1;align=center;verticalAlign=middle;resizable=1;points=[];autosize=1;strokeColor=none;fillColor=none;movable=1;rotatable=1;deletable=1;editable=1;locked=0;connectable=1;" parent="1" vertex="1">
          <mxGeometry x="535" y="300" width="60" height="30" as="geometry" />
        </mxCell>
        <mxCell id="BCcBlVLc_U1ke10MkRPn-28" value="" style="endArrow=none;html=1;rounded=0;edgeStyle=orthogonalEdgeStyle;strokeWidth=3;endFill=0;movable=1;resizable=1;rotatable=1;deletable=1;editable=1;locked=0;connectable=1;" parent="1" edge="1">
          <mxGeometry width="50" height="50" relative="1" as="geometry">
            <mxPoint x="650" y="383.64" as="sourcePoint" />
            <mxPoint x="747" y="383.64" as="targetPoint" />
            <Array as="points">
              <mxPoint x="740" y="383.64" />
              <mxPoint x="740" y="383.64" />
            </Array>
          </mxGeometry>
        </mxCell>
        <mxCell id="BCcBlVLc_U1ke10MkRPn-29" value="ALUResult" style="text;html=1;align=center;verticalAlign=middle;resizable=1;points=[];autosize=1;strokeColor=none;fillColor=none;movable=1;rotatable=1;deletable=1;editable=1;locked=0;connectable=1;" parent="1" vertex="1">
          <mxGeometry x="650" y="360" width="80" height="30" as="geometry" />
        </mxCell>
        <mxCell id="BCcBlVLc_U1ke10MkRPn-31" value="Zero" style="text;html=1;align=center;verticalAlign=middle;resizable=1;points=[];autosize=1;strokeColor=none;fillColor=none;movable=1;rotatable=1;deletable=1;editable=1;locked=0;connectable=1;" parent="1" vertex="1">
          <mxGeometry x="650" y="336.25" width="50" height="30" as="geometry" />
        </mxCell>
        <mxCell id="BCcBlVLc_U1ke10MkRPn-32" value="&lt;font style=&quot;font-size: 14px;&quot;&gt;&amp;nbsp; &amp;nbsp; &amp;nbsp; &amp;nbsp; ALU&lt;/font&gt;" style="shape=stencil(tZXRjoIwEEW/pq+bQsPq6wb1PyqOS2NtSdvV3b93oGCs0I0IJISkc7mHIb1DCcttySsgKS0J25A0TSjFO66vT2tuKyicL164EXwvwSvWGX2Cqzi4liFUCUa4WmVbQr/wmfpieaGVQojQygbKg44wLhR66a+Hta//C1YV8s/gwLRNNtXd68yPbAFqskSnIbPre95OZ6KGvSaL7NQ81ORNJsuxEgsxy/e8OH0b/aMOfVdUO2oDA8JdFlL6AYt9YMXruesJnXzWF/h/moawnVsK9eC+/wxaP5sKWI0FPGWMTvOvx9qz0P+ZTfOzsf7Q/sL+FVLbaHKwHgkPHguDmWs8vcQ2VX+ONIUb);whiteSpace=wrap;html=1;movable=1;resizable=1;rotatable=1;deletable=1;editable=1;locked=0;connectable=1;" parent="1" vertex="1">
          <mxGeometry x="590" y="676.25" width="60" height="130" as="geometry" />
        </mxCell>
        <mxCell id="BCcBlVLc_U1ke10MkRPn-33" value="" style="shape=trapezoid;perimeter=trapezoidPerimeter;whiteSpace=wrap;html=1;fixedSize=1;rotation=90;movable=1;resizable=1;rotatable=1;deletable=1;editable=1;locked=0;connectable=1;" parent="1" vertex="1">
          <mxGeometry x="460" y="776.25" width="95" height="30" as="geometry" />
        </mxCell>
        <mxCell id="BCcBlVLc_U1ke10MkRPn-34" value="" style="endArrow=none;html=1;rounded=0;edgeStyle=orthogonalEdgeStyle;exitX=0.5;exitY=0;exitDx=0;exitDy=0;strokeWidth=3;endFill=0;movable=1;resizable=1;rotatable=1;deletable=1;editable=1;locked=0;connectable=1;" parent="1" source="BCcBlVLc_U1ke10MkRPn-33" edge="1">
          <mxGeometry width="50" height="50" relative="1" as="geometry">
            <mxPoint x="530" y="795.75" as="sourcePoint" />
            <mxPoint x="590" y="791.25" as="targetPoint" />
            <Array as="points">
              <mxPoint x="590" y="791.25" />
            </Array>
          </mxGeometry>
        </mxCell>
        <mxCell id="BCcBlVLc_U1ke10MkRPn-35" value="SrcB2" style="text;html=1;align=center;verticalAlign=middle;resizable=1;points=[];autosize=1;strokeColor=none;fillColor=none;movable=1;rotatable=1;deletable=1;editable=1;locked=0;connectable=1;" parent="1" vertex="1">
          <mxGeometry x="535" y="766.25" width="60" height="30" as="geometry" />
        </mxCell>
        <mxCell id="BCcBlVLc_U1ke10MkRPn-37" value="" style="endArrow=none;html=1;rounded=0;edgeStyle=orthogonalEdgeStyle;strokeWidth=3;endFill=0;movable=1;resizable=1;rotatable=1;deletable=1;editable=1;locked=0;connectable=1;entryX=0.333;entryY=0.999;entryDx=0;entryDy=0;entryPerimeter=0;" parent="1" target="McoKHCdC2h_daNFeaJf2-7" edge="1">
          <mxGeometry width="50" height="50" relative="1" as="geometry">
            <mxPoint x="650" y="746.25" as="sourcePoint" />
            <mxPoint x="760" y="746" as="targetPoint" />
            <Array as="points">
              <mxPoint x="740" y="746" />
            </Array>
          </mxGeometry>
        </mxCell>
        <mxCell id="BCcBlVLc_U1ke10MkRPn-38" value="ALUResult" style="text;html=1;align=center;verticalAlign=middle;resizable=1;points=[];autosize=1;strokeColor=none;fillColor=none;movable=1;rotatable=1;deletable=1;editable=1;locked=0;connectable=1;" parent="1" vertex="1">
          <mxGeometry x="650" y="720" width="80" height="30" as="geometry" />
        </mxCell>
        <mxCell id="BCcBlVLc_U1ke10MkRPn-39" value="Zero" style="text;html=1;align=center;verticalAlign=middle;resizable=1;points=[];autosize=1;strokeColor=none;fillColor=none;movable=1;rotatable=1;deletable=1;editable=1;locked=0;connectable=1;" parent="1" vertex="1">
          <mxGeometry x="650" y="696.25" width="50" height="30" as="geometry" />
        </mxCell>
        <mxCell id="BCcBlVLc_U1ke10MkRPn-40" value="" style="shape=trapezoid;perimeter=trapezoidPerimeter;whiteSpace=wrap;html=1;fixedSize=1;rotation=90;movable=1;resizable=1;rotatable=1;deletable=1;editable=1;locked=0;connectable=1;" parent="1" vertex="1">
          <mxGeometry x="460" y="316.25" width="95" height="30" as="geometry" />
        </mxCell>
        <mxCell id="BCcBlVLc_U1ke10MkRPn-41" value="" style="endArrow=none;html=1;rounded=0;edgeStyle=orthogonalEdgeStyle;exitX=0.5;exitY=0;exitDx=0;exitDy=0;strokeWidth=3;endFill=0;movable=1;resizable=1;rotatable=1;deletable=1;editable=1;locked=0;connectable=1;" parent="1" source="BCcBlVLc_U1ke10MkRPn-40" edge="1">
          <mxGeometry width="50" height="50" relative="1" as="geometry">
            <mxPoint x="530" y="335.75" as="sourcePoint" />
            <mxPoint x="590" y="331.25" as="targetPoint" />
            <Array as="points">
              <mxPoint x="590" y="331.25" />
            </Array>
          </mxGeometry>
        </mxCell>
        <mxCell id="BCcBlVLc_U1ke10MkRPn-42" value="" style="endArrow=none;html=1;rounded=0;exitX=0.9;exitY=0.667;exitDx=0;exitDy=0;exitPerimeter=0;strokeWidth=3;endFill=0;" parent="1" source="mD6Y1HiL43RDxldO9E73-27" edge="1">
          <mxGeometry width="50" height="50" relative="1" as="geometry">
            <mxPoint x="280" y="430" as="sourcePoint" />
            <mxPoint x="590" y="430" as="targetPoint" />
          </mxGeometry>
        </mxCell>
        <mxCell id="BCcBlVLc_U1ke10MkRPn-43" value="" style="endArrow=none;html=1;rounded=0;exitX=0.9;exitY=0.667;exitDx=0;exitDy=0;exitPerimeter=0;strokeWidth=3;endFill=0;" parent="1" edge="1">
          <mxGeometry width="50" height="50" relative="1" as="geometry">
            <mxPoint x="250" y="690" as="sourcePoint" />
            <mxPoint x="590" y="690" as="targetPoint" />
          </mxGeometry>
        </mxCell>
        <mxCell id="BCcBlVLc_U1ke10MkRPn-44" value="" style="endArrow=none;html=1;rounded=0;exitX=0.9;exitY=0.667;exitDx=0;exitDy=0;exitPerimeter=0;entryX=0.75;entryY=1;entryDx=0;entryDy=0;strokeWidth=3;endFill=0;" parent="1" source="mD6Y1HiL43RDxldO9E73-28" target="BCcBlVLc_U1ke10MkRPn-40" edge="1">
          <mxGeometry width="50" height="50" relative="1" as="geometry">
            <mxPoint x="270" y="510" as="sourcePoint" />
            <mxPoint x="470" y="510" as="targetPoint" />
            <Array as="points">
              <mxPoint x="460" y="510" />
              <mxPoint x="460" y="355" />
            </Array>
          </mxGeometry>
        </mxCell>
        <mxCell id="BCcBlVLc_U1ke10MkRPn-48" value="Data&lt;br&gt;Memory" style="rounded=0;whiteSpace=wrap;html=1;" parent="1" vertex="1">
          <mxGeometry x="747" y="313.75" width="120" height="190" as="geometry" />
        </mxCell>
        <mxCell id="BCcBlVLc_U1ke10MkRPn-49" value="WD" style="text;html=1;strokeColor=none;fillColor=none;align=center;verticalAlign=middle;whiteSpace=wrap;rounded=0;" parent="1" vertex="1">
          <mxGeometry x="747" y="463.75" width="40" height="30" as="geometry" />
        </mxCell>
        <mxCell id="BCcBlVLc_U1ke10MkRPn-50" value="A" style="text;html=1;strokeColor=none;fillColor=none;align=center;verticalAlign=middle;whiteSpace=wrap;rounded=0;" parent="1" vertex="1">
          <mxGeometry x="740" y="368.75" width="30" height="30" as="geometry" />
        </mxCell>
        <mxCell id="BCcBlVLc_U1ke10MkRPn-51" value="" style="triangle;whiteSpace=wrap;html=1;rotation=-90;" parent="1" vertex="1">
          <mxGeometry x="842" y="478.75" width="20" height="30" as="geometry" />
        </mxCell>
        <mxCell id="BCcBlVLc_U1ke10MkRPn-52" value="WE" style="text;html=1;strokeColor=none;fillColor=none;align=center;verticalAlign=middle;whiteSpace=wrap;rounded=0;" parent="1" vertex="1">
          <mxGeometry x="777" y="313.75" width="60" height="30" as="geometry" />
        </mxCell>
        <mxCell id="BCcBlVLc_U1ke10MkRPn-53" value="RD" style="text;html=1;strokeColor=none;fillColor=none;align=center;verticalAlign=middle;whiteSpace=wrap;rounded=0;" parent="1" vertex="1">
          <mxGeometry x="837" y="376.25" width="30" height="30" as="geometry" />
        </mxCell>
        <mxCell id="BCcBlVLc_U1ke10MkRPn-54" value="" style="endArrow=none;html=1;rounded=0;edgeStyle=orthogonalEdgeStyle;entryX=0.25;entryY=1;entryDx=0;entryDy=0;strokeWidth=3;endFill=0;" parent="1" edge="1">
          <mxGeometry width="50" height="50" relative="1" as="geometry">
            <mxPoint x="730" y="382.76" as="sourcePoint" />
            <mxPoint x="954" y="358.76" as="targetPoint" />
            <Array as="points">
              <mxPoint x="730" y="284" />
              <mxPoint x="890" y="284" />
              <mxPoint x="890" y="359" />
            </Array>
          </mxGeometry>
        </mxCell>
        <mxCell id="BCcBlVLc_U1ke10MkRPn-55" value="" style="endArrow=none;html=1;rounded=0;entryX=0;entryY=0.5;entryDx=0;entryDy=0;strokeWidth=3;" parent="1" target="BCcBlVLc_U1ke10MkRPn-49" edge="1">
          <mxGeometry width="50" height="50" relative="1" as="geometry">
            <mxPoint x="460" y="479" as="sourcePoint" />
            <mxPoint x="660" y="446.25" as="targetPoint" />
          </mxGeometry>
        </mxCell>
        <mxCell id="BCcBlVLc_U1ke10MkRPn-56" value="WriteData" style="text;html=1;strokeColor=none;fillColor=none;align=center;verticalAlign=middle;whiteSpace=wrap;rounded=0;" parent="1" vertex="1">
          <mxGeometry x="255" y="478.75" width="60" height="30" as="geometry" />
        </mxCell>
        <mxCell id="BCcBlVLc_U1ke10MkRPn-57" value="" style="shape=trapezoid;perimeter=trapezoidPerimeter;whiteSpace=wrap;html=1;fixedSize=1;rotation=90;" parent="1" vertex="1">
          <mxGeometry x="920" y="352" width="95" height="28" as="geometry" />
        </mxCell>
        <mxCell id="BCcBlVLc_U1ke10MkRPn-59" value="ReadData" style="text;html=1;align=center;verticalAlign=middle;resizable=0;points=[];autosize=1;strokeColor=none;fillColor=none;" parent="1" vertex="1">
          <mxGeometry x="862" y="366.25" width="80" height="30" as="geometry" />
        </mxCell>
        <mxCell id="BCcBlVLc_U1ke10MkRPn-60" value="WE6" style="text;html=1;strokeColor=none;fillColor=none;align=center;verticalAlign=middle;whiteSpace=wrap;rounded=0;" parent="1" vertex="1">
          <mxGeometry x="160" y="802.25" width="60" height="30" as="geometry" />
        </mxCell>
        <mxCell id="BCcBlVLc_U1ke10MkRPn-61" value="WD3" style="text;html=1;align=center;verticalAlign=middle;resizable=0;points=[];autosize=1;strokeColor=none;fillColor=none;" parent="1" vertex="1">
          <mxGeometry x="205" y="558" width="50" height="30" as="geometry" />
        </mxCell>
        <mxCell id="BCcBlVLc_U1ke10MkRPn-62" value="WD6" style="text;html=1;align=center;verticalAlign=middle;resizable=0;points=[];autosize=1;strokeColor=none;fillColor=none;" parent="1" vertex="1">
          <mxGeometry x="205" y="620" width="50" height="30" as="geometry" />
        </mxCell>
        <mxCell id="McoKHCdC2h_daNFeaJf2-1" value="" style="endArrow=none;html=1;rounded=0;exitX=0.273;exitY=0.998;exitDx=0;exitDy=0;exitPerimeter=0;strokeWidth=3;" parent="1" source="BCcBlVLc_U1ke10MkRPn-33" edge="1">
          <mxGeometry width="50" height="50" relative="1" as="geometry">
            <mxPoint x="470" y="770" as="sourcePoint" />
            <mxPoint x="250" y="768.88" as="targetPoint" />
          </mxGeometry>
        </mxCell>
        <mxCell id="McoKHCdC2h_daNFeaJf2-2" value="" style="endArrow=none;html=1;rounded=0;entryX=0.75;entryY=1;entryDx=0;entryDy=0;strokeWidth=3;" parent="1" target="BCcBlVLc_U1ke10MkRPn-33" edge="1">
          <mxGeometry width="50" height="50" relative="1" as="geometry">
            <mxPoint x="400" y="864.75" as="sourcePoint" />
            <mxPoint x="450" y="814.75" as="targetPoint" />
            <Array as="points">
              <mxPoint x="440" y="865" />
              <mxPoint x="440" y="815" />
            </Array>
          </mxGeometry>
        </mxCell>
        <mxCell id="McoKHCdC2h_daNFeaJf2-3" value="" style="endArrow=none;html=1;rounded=0;entryX=0.25;entryY=1;entryDx=0;entryDy=0;strokeWidth=3;" parent="1" target="BCcBlVLc_U1ke10MkRPn-57" edge="1">
          <mxGeometry width="50" height="50" relative="1" as="geometry">
            <mxPoint x="-460" y="650" as="sourcePoint" />
            <mxPoint x="920" y="240" as="targetPoint" />
            <Array as="points">
              <mxPoint x="-40" y="650" />
              <mxPoint x="-40" y="240" />
              <mxPoint x="920" y="240" />
              <mxPoint x="920" y="342" />
            </Array>
          </mxGeometry>
        </mxCell>
        <mxCell id="McoKHCdC2h_daNFeaJf2-4" value="" style="endArrow=none;html=1;rounded=0;entryX=0.805;entryY=1.006;entryDx=0;entryDy=0;entryPerimeter=0;strokeWidth=3;" parent="1" target="BCcBlVLc_U1ke10MkRPn-57" edge="1">
          <mxGeometry width="50" height="50" relative="1" as="geometry">
            <mxPoint x="867" y="394.88" as="sourcePoint" />
            <mxPoint x="917" y="344.88" as="targetPoint" />
          </mxGeometry>
        </mxCell>
        <mxCell id="McoKHCdC2h_daNFeaJf2-5" value="" style="endArrow=none;html=1;rounded=0;entryX=0.5;entryY=0;entryDx=0;entryDy=0;strokeWidth=3;" parent="1" target="BCcBlVLc_U1ke10MkRPn-57" edge="1">
          <mxGeometry width="50" height="50" relative="1" as="geometry">
            <mxPoint x="250" y="578" as="sourcePoint" />
            <mxPoint x="1120" y="580" as="targetPoint" />
            <Array as="points">
              <mxPoint x="1080" y="578" />
              <mxPoint x="1080" y="366" />
            </Array>
          </mxGeometry>
        </mxCell>
        <mxCell id="McoKHCdC2h_daNFeaJf2-6" value="" style="endArrow=none;html=1;rounded=0;strokeWidth=3;entryX=0.684;entryY=0.999;entryDx=0;entryDy=0;entryPerimeter=0;" parent="1" target="McoKHCdC2h_daNFeaJf2-7" edge="1">
          <mxGeometry width="50" height="50" relative="1" as="geometry">
            <mxPoint x="-470" y="950" as="sourcePoint" />
            <mxPoint x="760" y="780" as="targetPoint" />
            <Array as="points">
              <mxPoint x="700" y="950" />
              <mxPoint x="700" y="780" />
            </Array>
          </mxGeometry>
        </mxCell>
        <mxCell id="McoKHCdC2h_daNFeaJf2-7" value="" style="shape=trapezoid;perimeter=trapezoidPerimeter;whiteSpace=wrap;html=1;fixedSize=1;rotation=90;" parent="1" vertex="1">
          <mxGeometry x="740" y="748.25" width="95" height="28" as="geometry" />
        </mxCell>
        <mxCell id="McoKHCdC2h_daNFeaJf2-8" value="" style="endArrow=none;html=1;rounded=0;entryX=0.477;entryY=0.004;entryDx=0;entryDy=0;entryPerimeter=0;strokeWidth=3;" parent="1" target="McoKHCdC2h_daNFeaJf2-7" edge="1">
          <mxGeometry width="50" height="50" relative="1" as="geometry">
            <mxPoint x="250" y="640" as="sourcePoint" />
            <mxPoint x="880" y="750" as="targetPoint" />
            <Array as="points">
              <mxPoint x="880" y="640" />
              <mxPoint x="880" y="760" />
            </Array>
          </mxGeometry>
        </mxCell>
        <mxCell id="McoKHCdC2h_daNFeaJf2-9" value="" style="endArrow=none;html=1;rounded=0;strokeWidth=3;entryX=-0.042;entryY=0.107;entryDx=0;entryDy=0;entryPerimeter=0;" parent="1" target="McoKHCdC2h_daNFeaJf2-11" edge="1">
          <mxGeometry width="50" height="50" relative="1" as="geometry">
            <mxPoint x="-650.06" y="300" as="sourcePoint" />
            <mxPoint x="480" y="160" as="targetPoint" />
            <Array as="points">
              <mxPoint x="-650" y="160" />
              <mxPoint x="400" y="160" />
              <mxPoint x="400" y="104" />
            </Array>
          </mxGeometry>
        </mxCell>
        <mxCell id="McoKHCdC2h_daNFeaJf2-10" value="" style="endArrow=none;html=1;rounded=0;strokeWidth=3;" parent="1" edge="1">
          <mxGeometry width="50" height="50" relative="1" as="geometry">
            <mxPoint x="440" y="313.75" as="sourcePoint" />
            <mxPoint x="480" y="200" as="targetPoint" />
            <Array as="points">
              <mxPoint x="440" y="200" />
            </Array>
          </mxGeometry>
        </mxCell>
        <mxCell id="McoKHCdC2h_daNFeaJf2-11" value="&lt;font style=&quot;font-size: 17px;&quot;&gt;&amp;nbsp; &amp;nbsp; &amp;nbsp; +&lt;/font&gt;" style="shape=stencil(tZXRjoIwEEW/pq+bQsPq6wb1PyqOS2NtSdvV3b93oGCs0I0IJISkc7mHIb1DCcttySsgKS0J25A0TSjFO66vT2tuKyicL164EXwvwSvWGX2Cqzi4liFUCUa4WmVbQr/wmfpieaGVQojQygbKg44wLhR66a+Hta//C1YV8s/gwLRNNtXd68yPbAFqskSnIbPre95OZ6KGvSaL7NQ81ORNJsuxEgsxy/e8OH0b/aMOfVdUO2oDA8JdFlL6AYt9YMXruesJnXzWF/h/moawnVsK9eC+/wxaP5sKWI0FPGWMTvOvx9qz0P+ZTfOzsf7Q/sL+FVLbaHKwHgkPHguDmWs8vcQ2VX+ONIUb);whiteSpace=wrap;html=1;" parent="1" vertex="1">
          <mxGeometry x="480" y="90" width="60" height="130" as="geometry" />
        </mxCell>
        <mxCell id="McoKHCdC2h_daNFeaJf2-12" value="PCTarget1" style="text;html=1;align=center;verticalAlign=middle;resizable=0;points=[];autosize=1;strokeColor=none;fillColor=none;" parent="1" vertex="1">
          <mxGeometry x="535" y="125" width="80" height="30" as="geometry" />
        </mxCell>
        <mxCell id="McoKHCdC2h_daNFeaJf2-13" value="" style="endArrow=none;html=1;rounded=0;strokeWidth=3;" parent="1" edge="1">
          <mxGeometry width="50" height="50" relative="1" as="geometry">
            <mxPoint x="480" y="1000" as="sourcePoint" />
            <mxPoint x="440" y="860" as="targetPoint" />
            <Array as="points">
              <mxPoint x="440" y="1000" />
            </Array>
          </mxGeometry>
        </mxCell>
        <mxCell id="McoKHCdC2h_daNFeaJf2-14" value="&lt;font style=&quot;font-size: 17px;&quot;&gt;&amp;nbsp; &amp;nbsp; &amp;nbsp; +&lt;/font&gt;" style="shape=stencil(tZXRjoIwEEW/pq+bQsPq6wb1PyqOS2NtSdvV3b93oGCs0I0IJISkc7mHIb1DCcttySsgKS0J25A0TSjFO66vT2tuKyicL164EXwvwSvWGX2Cqzi4liFUCUa4WmVbQr/wmfpieaGVQojQygbKg44wLhR66a+Hta//C1YV8s/gwLRNNtXd68yPbAFqskSnIbPre95OZ6KGvSaL7NQ81ORNJsuxEgsxy/e8OH0b/aMOfVdUO2oDA8JdFlL6AYt9YMXruesJnXzWF/h/moawnVsK9eC+/wxaP5sKWI0FPGWMTvOvx9qz0P+ZTfOzsf7Q/sL+FVLbaHKwHgkPHguDmWs8vcQ2VX+ONIUb);whiteSpace=wrap;html=1;" parent="1" vertex="1">
          <mxGeometry x="480" y="980" width="60" height="130" as="geometry" />
        </mxCell>
        <mxCell id="McoKHCdC2h_daNFeaJf2-15" value="PCTarget2" style="text;html=1;align=center;verticalAlign=middle;resizable=0;points=[];autosize=1;strokeColor=none;fillColor=none;" parent="1" vertex="1">
          <mxGeometry x="535" y="1015" width="80" height="30" as="geometry" />
        </mxCell>
        <mxCell id="McoKHCdC2h_daNFeaJf2-16" value="" style="endArrow=none;html=1;rounded=0;exitX=-0.039;exitY=0.909;exitDx=0;exitDy=0;exitPerimeter=0;strokeWidth=3;" parent="1" source="McoKHCdC2h_daNFeaJf2-14" edge="1">
          <mxGeometry width="50" height="50" relative="1" as="geometry">
            <mxPoint x="-40" y="1060" as="sourcePoint" />
            <mxPoint x="-40" y="650" as="targetPoint" />
            <Array as="points">
              <mxPoint x="-40" y="1098" />
            </Array>
          </mxGeometry>
        </mxCell>
        <mxCell id="kmD2kSmIw5DQ0OwgYXNQ-18" value="" style="edgeStyle=orthogonalEdgeStyle;rounded=0;orthogonalLoop=1;jettySize=auto;html=1;entryX=0.011;entryY=0.167;entryDx=0;entryDy=0;entryPerimeter=0;strokeWidth=3;endArrow=none;endFill=0;" parent="1" source="kmD2kSmIw5DQ0OwgYXNQ-1" target="pqKyCdqcijLwKparUM79-4" edge="1">
          <mxGeometry relative="1" as="geometry">
            <mxPoint x="-790" y="290" as="targetPoint" />
          </mxGeometry>
        </mxCell>
        <mxCell id="kmD2kSmIw5DQ0OwgYXNQ-1" value="" style="shape=trapezoid;perimeter=trapezoidPerimeter;whiteSpace=wrap;html=1;fixedSize=1;rotation=90;" parent="1" vertex="1">
          <mxGeometry x="-947" y="280.31" width="120" height="36.25" as="geometry" />
        </mxCell>
        <mxCell id="kmD2kSmIw5DQ0OwgYXNQ-2" value="" style="shape=trapezoid;perimeter=trapezoidPerimeter;whiteSpace=wrap;html=1;fixedSize=1;rotation=90;" parent="1" vertex="1">
          <mxGeometry x="-1077" y="250.31" width="120" height="36.25" as="geometry" />
        </mxCell>
        <mxCell id="kmD2kSmIw5DQ0OwgYXNQ-3" value="" style="shape=trapezoid;perimeter=trapezoidPerimeter;whiteSpace=wrap;html=1;fixedSize=1;rotation=90;" parent="1" vertex="1">
          <mxGeometry x="-1207" y="280.31" width="120" height="36.25" as="geometry" />
        </mxCell>
        <mxCell id="kmD2kSmIw5DQ0OwgYXNQ-4" value="" style="endArrow=none;html=1;rounded=0;entryX=0.75;entryY=1;entryDx=0;entryDy=0;exitX=0.5;exitY=0;exitDx=0;exitDy=0;strokeWidth=3;" parent="1" source="kmD2kSmIw5DQ0OwgYXNQ-3" target="kmD2kSmIw5DQ0OwgYXNQ-2" edge="1">
          <mxGeometry width="50" height="50" relative="1" as="geometry">
            <mxPoint x="-1117" y="300.31" as="sourcePoint" />
            <mxPoint x="-1067" y="250.31" as="targetPoint" />
          </mxGeometry>
        </mxCell>
        <mxCell id="kmD2kSmIw5DQ0OwgYXNQ-5" value="" style="endArrow=none;html=1;rounded=0;entryX=0.25;entryY=1;entryDx=0;entryDy=0;strokeWidth=3;" parent="1" source="kmD2kSmIw5DQ0OwgYXNQ-2" target="kmD2kSmIw5DQ0OwgYXNQ-1" edge="1">
          <mxGeometry width="50" height="50" relative="1" as="geometry">
            <mxPoint x="-997" y="268.56" as="sourcePoint" />
            <mxPoint x="-915" y="266.56" as="targetPoint" />
          </mxGeometry>
        </mxCell>
        <mxCell id="kmD2kSmIw5DQ0OwgYXNQ-6" value="0" style="text;html=1;align=center;verticalAlign=middle;resizable=0;points=[];autosize=1;strokeColor=none;fillColor=none;" parent="1" vertex="1">
          <mxGeometry x="-902" y="261.56" width="30" height="30" as="geometry" />
        </mxCell>
        <mxCell id="kmD2kSmIw5DQ0OwgYXNQ-8" value="1" style="text;html=1;align=center;verticalAlign=middle;resizable=0;points=[];autosize=1;strokeColor=none;fillColor=none;" parent="1" vertex="1">
          <mxGeometry x="-902" y="305.31" width="30" height="30" as="geometry" />
        </mxCell>
        <mxCell id="kmD2kSmIw5DQ0OwgYXNQ-9" value="0" style="text;html=1;align=center;verticalAlign=middle;resizable=0;points=[];autosize=1;strokeColor=none;fillColor=none;" parent="1" vertex="1">
          <mxGeometry x="-1032" y="234.69" width="30" height="30" as="geometry" />
        </mxCell>
        <mxCell id="kmD2kSmIw5DQ0OwgYXNQ-10" value="1" style="text;html=1;align=center;verticalAlign=middle;resizable=0;points=[];autosize=1;strokeColor=none;fillColor=none;" parent="1" vertex="1">
          <mxGeometry x="-1032" y="278.44" width="30" height="30" as="geometry" />
        </mxCell>
        <mxCell id="kmD2kSmIw5DQ0OwgYXNQ-11" value="0" style="text;html=1;align=center;verticalAlign=middle;resizable=0;points=[];autosize=1;strokeColor=none;fillColor=none;" parent="1" vertex="1">
          <mxGeometry x="-1162" y="261.56" width="30" height="30" as="geometry" />
        </mxCell>
        <mxCell id="kmD2kSmIw5DQ0OwgYXNQ-12" value="1" style="text;html=1;align=center;verticalAlign=middle;resizable=0;points=[];autosize=1;strokeColor=none;fillColor=none;" parent="1" vertex="1">
          <mxGeometry x="-1162" y="305.31" width="30" height="30" as="geometry" />
        </mxCell>
        <mxCell id="kmD2kSmIw5DQ0OwgYXNQ-13" value="PCMuxOut_L3" style="text;html=1;align=center;verticalAlign=middle;resizable=0;points=[];autosize=1;strokeColor=none;fillColor=none;" parent="1" vertex="1">
          <mxGeometry x="-870.06" y="270.31" width="100" height="30" as="geometry" />
        </mxCell>
        <mxCell id="kmD2kSmIw5DQ0OwgYXNQ-14" value="PCMuxOut_L1" style="text;html=1;align=center;verticalAlign=middle;resizable=0;points=[];autosize=1;strokeColor=none;fillColor=none;" parent="1" vertex="1">
          <mxGeometry x="-1132" y="270.31" width="100" height="30" as="geometry" />
        </mxCell>
        <mxCell id="kmD2kSmIw5DQ0OwgYXNQ-17" value="PCMuxOut_L2" style="text;html=1;align=center;verticalAlign=middle;resizable=0;points=[];autosize=1;strokeColor=none;fillColor=none;" parent="1" vertex="1">
          <mxGeometry x="-1002" y="240.31" width="100" height="30" as="geometry" />
        </mxCell>
        <mxCell id="kmD2kSmIw5DQ0OwgYXNQ-19" value="PCTarget1" style="text;html=1;align=center;verticalAlign=middle;resizable=0;points=[];autosize=1;strokeColor=none;fillColor=none;" parent="1" vertex="1">
          <mxGeometry x="-970" y="90" width="80" height="30" as="geometry" />
        </mxCell>
        <mxCell id="kmD2kSmIw5DQ0OwgYXNQ-20" value="" style="endArrow=none;html=1;rounded=0;exitX=0;exitY=0.5;exitDx=0;exitDy=0;" parent="1" source="kmD2kSmIw5DQ0OwgYXNQ-45" edge="1">
          <mxGeometry width="50" height="50" relative="1" as="geometry">
            <mxPoint x="-887.62" y="436.40999999999997" as="sourcePoint" />
            <mxPoint x="-887.2" y="346.1" as="targetPoint" />
            <Array as="points">
              <mxPoint x="-887" y="1280" />
            </Array>
          </mxGeometry>
        </mxCell>
        <mxCell id="kmD2kSmIw5DQ0OwgYXNQ-21" value="PCSrc1" style="text;html=1;align=center;verticalAlign=middle;resizable=0;points=[];autosize=1;strokeColor=none;fillColor=none;" parent="1" vertex="1">
          <mxGeometry x="-880" y="370" width="60" height="30" as="geometry" />
        </mxCell>
        <mxCell id="kmD2kSmIw5DQ0OwgYXNQ-22" value="PCPlus4" style="text;html=1;align=center;verticalAlign=middle;resizable=0;points=[];autosize=1;strokeColor=none;fillColor=none;" parent="1" vertex="1">
          <mxGeometry x="-1102" y="211.88" width="70" height="30" as="geometry" />
        </mxCell>
        <mxCell id="kmD2kSmIw5DQ0OwgYXNQ-24" value="" style="endArrow=none;html=1;rounded=0;exitX=1;exitY=0.5;exitDx=0;exitDy=0;entryX=-0.081;entryY=0.514;entryDx=0;entryDy=0;entryPerimeter=0;strokeWidth=3;endFill=0;" parent="1" source="McoKHCdC2h_daNFeaJf2-14" target="kmD2kSmIw5DQ0OwgYXNQ-12" edge="1">
          <mxGeometry width="50" height="50" relative="1" as="geometry">
            <mxPoint x="540" y="1045" as="sourcePoint" />
            <mxPoint x="-1200" y="320" as="targetPoint" />
            <Array as="points">
              <mxPoint x="650" y="1045" />
              <mxPoint x="650" y="1190" />
              <mxPoint x="-1240" y="1190" />
              <mxPoint x="-1240" y="321" />
            </Array>
          </mxGeometry>
        </mxCell>
        <mxCell id="kmD2kSmIw5DQ0OwgYXNQ-25" value="PCTarget2" style="text;html=1;align=center;verticalAlign=middle;resizable=0;points=[];autosize=1;strokeColor=none;fillColor=none;" parent="1" vertex="1">
          <mxGeometry x="-1242" y="291.56" width="80" height="30" as="geometry" />
        </mxCell>
        <mxCell id="kmD2kSmIw5DQ0OwgYXNQ-26" value="PCPlus8" style="text;html=1;align=center;verticalAlign=middle;resizable=0;points=[];autosize=1;strokeColor=none;fillColor=none;" parent="1" vertex="1">
          <mxGeometry x="-1232" y="248.44" width="70" height="30" as="geometry" />
        </mxCell>
        <mxCell id="kmD2kSmIw5DQ0OwgYXNQ-27" value="" style="endArrow=none;html=1;rounded=0;entryX=1;entryY=0.5;entryDx=0;entryDy=0;exitX=0.5;exitY=1;exitDx=0;exitDy=0;endFill=0;" parent="1" source="mD6Y1HiL43RDxldO9E73-11" target="kmD2kSmIw5DQ0OwgYXNQ-2" edge="1">
          <mxGeometry width="50" height="50" relative="1" as="geometry">
            <mxPoint x="-350" y="588" as="sourcePoint" />
            <mxPoint x="-300" y="538" as="targetPoint" />
            <Array as="points">
              <mxPoint x="-353" y="520" />
              <mxPoint x="-1017" y="520" />
            </Array>
          </mxGeometry>
        </mxCell>
        <mxCell id="kmD2kSmIw5DQ0OwgYXNQ-28" value="Issue2Enable" style="text;html=1;align=center;verticalAlign=middle;resizable=0;points=[];autosize=1;strokeColor=none;fillColor=none;" parent="1" vertex="1">
          <mxGeometry x="-360" y="490" width="100" height="30" as="geometry" />
        </mxCell>
        <mxCell id="kmD2kSmIw5DQ0OwgYXNQ-29" value="" style="endArrow=none;html=1;rounded=0;" parent="1" edge="1">
          <mxGeometry width="50" height="50" relative="1" as="geometry">
            <mxPoint x="-1147.29" y="440" as="sourcePoint" />
            <mxPoint x="-1146.87" y="349.69" as="targetPoint" />
          </mxGeometry>
        </mxCell>
        <mxCell id="kmD2kSmIw5DQ0OwgYXNQ-30" value="PCSrc2" style="text;html=1;align=center;verticalAlign=middle;resizable=0;points=[];autosize=1;strokeColor=none;fillColor=none;" parent="1" vertex="1">
          <mxGeometry x="-1200" y="360" width="60" height="30" as="geometry" />
        </mxCell>
        <mxCell id="kmD2kSmIw5DQ0OwgYXNQ-31" value="ImmExt1" style="text;html=1;align=center;verticalAlign=middle;resizable=0;points=[];autosize=1;strokeColor=none;fillColor=none;" parent="1" vertex="1">
          <mxGeometry x="414" y="166.25" width="70" height="30" as="geometry" />
        </mxCell>
        <mxCell id="kmD2kSmIw5DQ0OwgYXNQ-32" value="ImmExt2" style="text;html=1;align=center;verticalAlign=middle;resizable=0;points=[];autosize=1;strokeColor=none;fillColor=none;" parent="1" vertex="1">
          <mxGeometry x="440" y="852" width="70" height="30" as="geometry" />
        </mxCell>
        <mxCell id="kmD2kSmIw5DQ0OwgYXNQ-33" value="PC" style="text;html=1;align=center;verticalAlign=middle;resizable=0;points=[];autosize=1;strokeColor=none;fillColor=none;" parent="1" vertex="1">
          <mxGeometry x="440" y="80" width="40" height="30" as="geometry" />
        </mxCell>
        <mxCell id="kmD2kSmIw5DQ0OwgYXNQ-34" value="PCPlus4" style="text;html=1;align=center;verticalAlign=middle;resizable=0;points=[];autosize=1;strokeColor=none;fillColor=none;" parent="1" vertex="1">
          <mxGeometry x="410" y="1070" width="70" height="30" as="geometry" />
        </mxCell>
        <mxCell id="kmD2kSmIw5DQ0OwgYXNQ-35" value="RD1" style="text;html=1;align=center;verticalAlign=middle;resizable=0;points=[];autosize=1;strokeColor=none;fillColor=none;" parent="1" vertex="1">
          <mxGeometry x="250" y="393.75" width="50" height="30" as="geometry" />
        </mxCell>
        <mxCell id="kmD2kSmIw5DQ0OwgYXNQ-36" value="RD4" style="text;html=1;align=center;verticalAlign=middle;resizable=0;points=[];autosize=1;strokeColor=none;fillColor=none;" parent="1" vertex="1">
          <mxGeometry x="255" y="658" width="50" height="30" as="geometry" />
        </mxCell>
        <mxCell id="kmD2kSmIw5DQ0OwgYXNQ-37" value="RD5" style="text;html=1;align=center;verticalAlign=middle;resizable=0;points=[];autosize=1;strokeColor=none;fillColor=none;" parent="1" vertex="1">
          <mxGeometry x="255" y="736.25" width="50" height="30" as="geometry" />
        </mxCell>
        <mxCell id="kmD2kSmIw5DQ0OwgYXNQ-38" value="" style="endArrow=none;html=1;rounded=0;" parent="1" edge="1">
          <mxGeometry width="50" height="50" relative="1" as="geometry">
            <mxPoint x="670" y="1250" as="sourcePoint" />
            <mxPoint x="507" y="830" as="targetPoint" />
            <Array as="points">
              <mxPoint x="670" y="900" />
              <mxPoint x="507" y="900" />
            </Array>
          </mxGeometry>
        </mxCell>
        <mxCell id="kmD2kSmIw5DQ0OwgYXNQ-39" value="" style="endArrow=none;html=1;rounded=0;" parent="1" edge="1">
          <mxGeometry width="50" height="50" relative="1" as="geometry">
            <mxPoint x="340" y="1250" as="sourcePoint" />
            <mxPoint x="340" y="904.75" as="targetPoint" />
          </mxGeometry>
        </mxCell>
        <mxCell id="kmD2kSmIw5DQ0OwgYXNQ-40" value="" style="endArrow=none;html=1;rounded=0;exitX=1;exitY=0.5;exitDx=0;exitDy=0;exitPerimeter=0;" parent="1" source="kmD2kSmIw5DQ0OwgYXNQ-41" edge="1">
          <mxGeometry width="50" height="50" relative="1" as="geometry">
            <mxPoint x="190" y="1280" as="sourcePoint" />
            <mxPoint x="190" y="830" as="targetPoint" />
            <Array as="points">
              <mxPoint x="190" y="1280" />
            </Array>
          </mxGeometry>
        </mxCell>
        <mxCell id="kmD2kSmIw5DQ0OwgYXNQ-41" value="" style="shape=or;whiteSpace=wrap;html=1;" parent="1" vertex="1">
          <mxGeometry x="95" y="1240" width="60" height="80" as="geometry" />
        </mxCell>
        <mxCell id="kmD2kSmIw5DQ0OwgYXNQ-42" value="" style="endArrow=none;html=1;rounded=0;entryX=0;entryY=0.25;entryDx=0;entryDy=0;entryPerimeter=0;" parent="1" target="kmD2kSmIw5DQ0OwgYXNQ-41" edge="1">
          <mxGeometry width="50" height="50" relative="1" as="geometry">
            <mxPoint x="-360" y="520" as="sourcePoint" />
            <mxPoint x="20" y="1230" as="targetPoint" />
            <Array as="points">
              <mxPoint x="-360" y="1260" />
            </Array>
          </mxGeometry>
        </mxCell>
        <mxCell id="kmD2kSmIw5DQ0OwgYXNQ-43" value="" style="endArrow=none;html=1;rounded=0;entryX=0;entryY=0.75;entryDx=0;entryDy=0;entryPerimeter=0;" parent="1" target="kmD2kSmIw5DQ0OwgYXNQ-41" edge="1">
          <mxGeometry width="50" height="50" relative="1" as="geometry">
            <mxPoint x="40" y="1400" as="sourcePoint" />
            <mxPoint x="-30" y="1250" as="targetPoint" />
            <Array as="points">
              <mxPoint x="40" y="1300" />
            </Array>
          </mxGeometry>
        </mxCell>
        <mxCell id="kmD2kSmIw5DQ0OwgYXNQ-44" value="" style="endArrow=none;html=1;rounded=0;entryX=0;entryY=0.5;entryDx=0;entryDy=0;entryPerimeter=0;exitX=1;exitY=0.5;exitDx=0;exitDy=0;" parent="1" source="kmD2kSmIw5DQ0OwgYXNQ-46" target="kmD2kSmIw5DQ0OwgYXNQ-41" edge="1">
          <mxGeometry width="50" height="50" relative="1" as="geometry">
            <mxPoint x="-90" y="1280" as="sourcePoint" />
            <mxPoint x="-120" y="1255" as="targetPoint" />
          </mxGeometry>
        </mxCell>
        <mxCell id="kmD2kSmIw5DQ0OwgYXNQ-45" value="" style="triangle;whiteSpace=wrap;html=1;" parent="1" vertex="1">
          <mxGeometry x="-490.06" y="1255" width="49.94" height="50" as="geometry" />
        </mxCell>
        <mxCell id="kmD2kSmIw5DQ0OwgYXNQ-46" value="" style="ellipse;whiteSpace=wrap;html=1;aspect=fixed;" parent="1" vertex="1">
          <mxGeometry x="-440.06" y="1268.75" width="22.5" height="22.5" as="geometry" />
        </mxCell>
        <mxCell id="kmD2kSmIw5DQ0OwgYXNQ-47" value="~PCSrc1" style="text;html=1;align=center;verticalAlign=middle;resizable=0;points=[];autosize=1;strokeColor=none;fillColor=none;" parent="1" vertex="1">
          <mxGeometry x="-417.56" y="1280" width="70" height="30" as="geometry" />
        </mxCell>
        <mxCell id="kmD2kSmIw5DQ0OwgYXNQ-48" value="RegWrite2" style="text;html=1;align=center;verticalAlign=middle;resizable=0;points=[];autosize=1;strokeColor=none;fillColor=none;" parent="1" vertex="1">
          <mxGeometry x="30" y="1350" width="80" height="30" as="geometry" />
        </mxCell>
        <mxCell id="kmD2kSmIw5DQ0OwgYXNQ-49" value="Issue2Enable" style="text;html=1;align=center;verticalAlign=middle;resizable=0;points=[];autosize=1;strokeColor=none;fillColor=none;" parent="1" vertex="1">
          <mxGeometry y="1225" width="100" height="30" as="geometry" />
        </mxCell>
      </root>
    </mxGraphModel>
  </diagram>
</mxfile>
